<mxfile host="65bd71144e">
    <diagram id="00uQ1r8bzlsPOv85Df7x" name="Page-1">
        <mxGraphModel dx="1789" dy="405" grid="1" gridSize="10" guides="0" tooltips="0" connect="1" arrows="1" fold="1" page="0" pageScale="1" pageWidth="1100" pageHeight="850" background="none" math="0" shadow="0">
            <root>
                <mxCell id="0"/>
                <mxCell id="1" parent="0"/>
                <mxCell id="4" value="Spoke12&lt;br&gt;&lt;b style=&quot;border-color: var(--border-color);&quot;&gt;spk12-lxvm&lt;br style=&quot;border-color: var(--border-color);&quot;&gt;10.0.2.4&lt;/b&gt;" style="rounded=1;whiteSpace=wrap;html=1;fillColor=#9BE0BA;" parent="1" vertex="1">
                    <mxGeometry x="-627" y="160" width="80" height="80" as="geometry"/>
                </mxCell>
                <mxCell id="5" value="Spoke11&lt;br&gt;&lt;b&gt;spk11-lxvm&lt;br&gt;10.0.1.4&lt;/b&gt;" style="rounded=1;whiteSpace=wrap;html=1;fillColor=#9BE0BA;" parent="1" vertex="1">
                    <mxGeometry x="-743" y="160" width="80" height="80" as="geometry"/>
                </mxCell>
                <mxCell id="8" value="&lt;b&gt;Hub1&lt;br&gt;&lt;br&gt;&lt;/b&gt;" style="rounded=1;whiteSpace=wrap;html=1;verticalAlign=top;fillColor=#99C9EF;arcSize=11;" parent="1" vertex="1">
                    <mxGeometry x="-765" y="280" width="250" height="240" as="geometry"/>
                </mxCell>
                <mxCell id="10" value="ER" style="triangle;rotation=-90;fillColor=#CBE59C;fontStyle=1;verticalAlign=middle;html=1;whiteSpace=wrap;" parent="1" vertex="1">
                    <mxGeometry x="-595" y="567" width="40" height="40" as="geometry"/>
                </mxCell>
                <mxCell id="13" value="ARS1&lt;br&gt;&lt;b&gt;ANS 65515&lt;/b&gt;" style="whiteSpace=wrap;html=1;aspect=fixed;fillColor=#9FB0FA;" parent="1" vertex="1">
                    <mxGeometry x="-745" y="340" width="65" height="65" as="geometry"/>
                </mxCell>
                <mxCell id="14" style="rounded=0;orthogonalLoop=1;jettySize=auto;html=1;exitX=0;exitY=0.5;exitDx=0;exitDy=0;dashed=1;strokeColor=#009900;endArrow=none;endFill=0;fontColor=#004F00;" parent="1" source="15" edge="1">
                    <mxGeometry relative="1" as="geometry">
                        <mxPoint x="-715" y="404" as="targetPoint"/>
                    </mxGeometry>
                </mxCell>
                <mxCell id="15" value="SDW&lt;br&gt;11" style="whiteSpace=wrap;html=1;aspect=fixed;fillColor=#F9C0A0;direction=south;" parent="1" vertex="1">
                    <mxGeometry x="-735" y="460" width="40" height="40" as="geometry"/>
                </mxCell>
                <mxCell id="25" value="DC1&lt;br&gt;&lt;b&gt;ASN 65128&lt;br&gt;VM 10.128.0.4&lt;br&gt;&lt;/b&gt;" style="rounded=0;whiteSpace=wrap;html=1;fillColor=#f5f5f5;strokeColor=#666666;gradientColor=#b3b3b3;" parent="1" vertex="1">
                    <mxGeometry x="-635" y="659" width="120" height="80" as="geometry"/>
                </mxCell>
                <mxCell id="26" value="&lt;b&gt;FS1&lt;br&gt;ASN 65010&lt;br&gt;VM 10.64.0.36&lt;br&gt;&lt;/b&gt;" style="rounded=0;whiteSpace=wrap;html=1;fillColor=#9BE0BA;" parent="1" vertex="1">
                    <mxGeometry x="-875" y="657" width="100" height="83" as="geometry"/>
                </mxCell>
                <mxCell id="27" style="rounded=0;orthogonalLoop=1;jettySize=auto;html=1;exitX=0.5;exitY=1;exitDx=0;exitDy=0;entryX=0.715;entryY=0.001;entryDx=0;entryDy=0;startArrow=oval;startFill=1;endArrow=oval;endFill=1;entryPerimeter=0;" parent="1" source="4" target="8" edge="1">
                    <mxGeometry relative="1" as="geometry"/>
                </mxCell>
                <mxCell id="28" style="rounded=0;orthogonalLoop=1;jettySize=auto;html=1;exitX=0.5;exitY=1;exitDx=0;exitDy=0;entryX=0.25;entryY=0;entryDx=0;entryDy=0;startArrow=oval;startFill=1;endArrow=oval;endFill=1;" parent="1" source="5" target="8" edge="1">
                    <mxGeometry relative="1" as="geometry"/>
                </mxCell>
                <mxCell id="29" style="rounded=0;orthogonalLoop=1;jettySize=auto;html=1;exitX=1;exitY=0.5;exitDx=0;exitDy=0;endArrow=oval;endFill=1;startArrow=oval;startFill=1;strokeColor=#FF0000;entryX=0;entryY=0.5;entryDx=0;entryDy=0;" parent="1" source="26" target="25" edge="1">
                    <mxGeometry relative="1" as="geometry"/>
                </mxCell>
                <mxCell id="31" style="rounded=0;orthogonalLoop=1;jettySize=auto;html=1;exitX=0.5;exitY=0;exitDx=0;exitDy=0;startArrow=oval;startFill=1;endArrow=oval;endFill=1;strokeColor=#FF0000;entryX=1;entryY=0.5;entryDx=0;entryDy=0;" parent="1" source="26" target="15" edge="1">
                    <mxGeometry relative="1" as="geometry">
                        <mxPoint x="-725" y="500" as="targetPoint"/>
                    </mxGeometry>
                </mxCell>
                <mxCell id="35" value="ERGW1&lt;br&gt;&lt;b&gt;ASN 65515&lt;/b&gt;" style="whiteSpace=wrap;html=1;aspect=fixed;fillStyle=auto;fillColor=#9FB0FA;" parent="1" vertex="1">
                    <mxGeometry x="-600" y="490" width="50" height="50" as="geometry"/>
                </mxCell>
                <mxCell id="37" value="10.0.1.0/24" style="text;html=1;strokeColor=none;fillColor=none;align=center;verticalAlign=middle;whiteSpace=wrap;rounded=0;fontStyle=1" parent="1" vertex="1">
                    <mxGeometry x="-744" y="140" width="80" height="20" as="geometry"/>
                </mxCell>
                <mxCell id="38" value="10.0.2.0/24" style="text;html=1;strokeColor=none;fillColor=none;align=center;verticalAlign=middle;whiteSpace=wrap;rounded=0;fontStyle=1" parent="1" vertex="1">
                    <mxGeometry x="-627" y="140" width="80" height="20" as="geometry"/>
                </mxCell>
                <mxCell id="40" value="&lt;b&gt;10.64.0.0/24&lt;/b&gt;" style="text;html=1;strokeColor=none;fillColor=none;align=center;verticalAlign=middle;whiteSpace=wrap;rounded=0;" parent="1" vertex="1">
                    <mxGeometry x="-860" y="740" width="80" height="20" as="geometry"/>
                </mxCell>
                <mxCell id="41" value="10.0.0.0/24" style="text;html=1;strokeColor=none;fillColor=none;align=center;verticalAlign=middle;whiteSpace=wrap;rounded=0;fontStyle=1" parent="1" vertex="1">
                    <mxGeometry x="-680" y="260" width="80" height="20" as="geometry"/>
                </mxCell>
                <mxCell id="42" value="&lt;b&gt;10.128.0.0/24&lt;/b&gt;" style="text;html=1;strokeColor=none;fillColor=none;align=center;verticalAlign=middle;whiteSpace=wrap;rounded=0;" parent="1" vertex="1">
                    <mxGeometry x="-610" y="739" width="80" height="20" as="geometry"/>
                </mxCell>
                <mxCell id="45" style="rounded=0;orthogonalLoop=1;jettySize=auto;html=1;exitX=1;exitY=0.5;exitDx=0;exitDy=0;entryX=0.5;entryY=1;entryDx=0;entryDy=0;startArrow=oval;startFill=1;endArrow=oval;endFill=1;" parent="1" source="10" target="35" edge="1">
                    <mxGeometry relative="1" as="geometry"/>
                </mxCell>
                <mxCell id="47" style="rounded=0;orthogonalLoop=1;jettySize=auto;html=1;exitX=0.5;exitY=0;exitDx=0;exitDy=0;startArrow=oval;startFill=1;endArrow=oval;endFill=1;entryX=0;entryY=0.5;entryDx=0;entryDy=0;" parent="1" source="25" target="10" edge="1">
                    <mxGeometry relative="1" as="geometry">
                        <mxPoint x="-630" y="620" as="targetPoint"/>
                    </mxGeometry>
                </mxCell>
                <mxCell id="57" style="rounded=0;orthogonalLoop=1;jettySize=auto;html=1;exitX=1;exitY=0.5;exitDx=0;exitDy=0;entryX=0;entryY=0.5;entryDx=0;entryDy=0;dashed=1;startArrow=none;startFill=0;endArrow=none;endFill=0;strokeColor=#000000;" parent="1" source="59" target="13" edge="1">
                    <mxGeometry relative="1" as="geometry"/>
                </mxCell>
                <mxCell id="59" value="&lt;font style=&quot;&quot;&gt;Azure Route Server (ARS)&lt;br&gt;&lt;div style=&quot;&quot;&gt;INT0 &lt;b&gt;10.0.0.133&lt;/b&gt;&lt;/div&gt;&lt;div style=&quot;&quot;&gt;INT1 &lt;b&gt;10.0.0.132&lt;/b&gt;&lt;/div&gt;&lt;div style=&quot;&quot;&gt;&lt;b&gt;B2B = Disabled&lt;/b&gt;&lt;/div&gt;&lt;/font&gt;" style="text;html=1;strokeColor=default;fillColor=#E6E6E6;align=center;verticalAlign=middle;whiteSpace=wrap;rounded=0;dashed=1;" parent="1" vertex="1">
                    <mxGeometry x="-940" y="320" width="140" height="87" as="geometry"/>
                </mxCell>
                <mxCell id="61" style="rounded=0;orthogonalLoop=1;jettySize=auto;html=1;exitX=1;exitY=0.5;exitDx=0;exitDy=0;entryX=0.5;entryY=1;entryDx=0;entryDy=0;dashed=1;startArrow=none;startFill=0;endArrow=none;endFill=0;strokeColor=#000000;" parent="1" source="62" target="15" edge="1">
                    <mxGeometry relative="1" as="geometry"/>
                </mxCell>
                <mxCell id="62" value="SDWAN Appliances&lt;br&gt;OPN1 -&amp;nbsp;&lt;b&gt;10.0.0.68&lt;/b&gt;&lt;br&gt;OPN2-&amp;nbsp;&lt;b&gt;10.0.0.69&lt;br&gt;ASN 65004&lt;br&gt;&lt;/b&gt;" style="text;html=1;strokeColor=default;fillColor=#E6E6E6;align=center;verticalAlign=middle;whiteSpace=wrap;rounded=0;dashed=1;" parent="1" vertex="1">
                    <mxGeometry x="-935" y="440" width="140" height="87" as="geometry"/>
                </mxCell>
                <mxCell id="69" style="rounded=0;orthogonalLoop=1;jettySize=auto;html=1;entryX=0.5;entryY=1;entryDx=0;entryDy=0;dashed=1;strokeColor=#009900;endArrow=none;endFill=0;fontColor=#004F00;labelBackgroundColor=default;" parent="1" source="94" target="10" edge="1">
                    <mxGeometry relative="1" as="geometry">
                        <mxPoint x="-295" y="532.5" as="sourcePoint"/>
                        <mxPoint x="-335" y="515" as="targetPoint"/>
                    </mxGeometry>
                </mxCell>
                <mxCell id="86" value="SDW&lt;br&gt;12" style="whiteSpace=wrap;html=1;aspect=fixed;fillColor=#F9C0A0;direction=south;" parent="1" vertex="1">
                    <mxGeometry x="-685" y="460" width="40" height="40" as="geometry"/>
                </mxCell>
                <mxCell id="87" style="rounded=0;orthogonalLoop=1;jettySize=auto;html=1;exitX=0;exitY=0.5;exitDx=0;exitDy=0;dashed=1;strokeColor=#009900;endArrow=none;endFill=0;entryX=0.75;entryY=1;entryDx=0;entryDy=0;fontColor=#004F00;" parent="1" source="86" target="13" edge="1">
                    <mxGeometry relative="1" as="geometry">
                        <mxPoint x="-705" y="400" as="targetPoint"/>
                        <mxPoint x="-705" y="470" as="sourcePoint"/>
                    </mxGeometry>
                </mxCell>
                <mxCell id="90" style="rounded=0;orthogonalLoop=1;jettySize=auto;html=1;startArrow=oval;startFill=1;endArrow=oval;endFill=1;strokeColor=#FF0000;entryX=1;entryY=0.5;entryDx=0;entryDy=0;exitX=0.75;exitY=0;exitDx=0;exitDy=0;" parent="1" source="26" target="86" edge="1">
                    <mxGeometry relative="1" as="geometry">
                        <mxPoint x="-705" y="510" as="targetPoint"/>
                        <mxPoint x="-745" y="860" as="sourcePoint"/>
                    </mxGeometry>
                </mxCell>
                <mxCell id="94" value="&lt;b&gt;MSEE&lt;br&gt;ASN 12076&lt;br&gt;Provider&lt;br&gt;ANS 65001&lt;br&gt;&lt;/b&gt;" style="text;html=1;strokeColor=#009900;fillColor=none;align=center;verticalAlign=middle;whiteSpace=wrap;rounded=0;dashed=1;" parent="1" vertex="1">
                    <mxGeometry x="-490" y="555" width="110" height="62" as="geometry"/>
                </mxCell>
                <mxCell id="101" value="VM&lt;br&gt;&lt;b&gt;10.0.0.4&lt;/b&gt;" style="text;align=center;html=1;verticalAlign=middle;whiteSpace=wrap;rounded=0;fontSize=12;strokeColor=default;" parent="1" vertex="1">
                    <mxGeometry x="-578" y="340" width="53" height="60" as="geometry"/>
                </mxCell>
                <mxCell id="110" value="Firewall" parent="0" visible="0"/>
                <mxCell id="137" style="edgeStyle=none;hachureGap=4;html=1;exitX=1;exitY=0.5;exitDx=0;exitDy=0;strokeColor=#009999;strokeWidth=1;fontFamily=Helvetica;fontSource=https%3A%2F%2Ffonts.googleapis.com%2Fcss%3Ffamily%3DArchitects%2BDaughter;fontSize=11;rounded=0;startArrow=classic;dashed=1;startSize=4;endSize=4;jumpSize=4;" parent="110" source="111" target="101" edge="1">
                    <mxGeometry relative="1" as="geometry"/>
                </mxCell>
                <mxCell id="111" value="FW" style="whiteSpace=wrap;html=1;aspect=fixed;gradientColor=none;fillStyle=auto;fillColor=#F18992;" parent="110" vertex="1">
                    <mxGeometry x="-665" y="340" width="60" height="60" as="geometry"/>
                </mxCell>
                <mxCell id="112" value="" style="endArrow=classic;startArrow=classic;html=1;rounded=0;dashed=1;strokeWidth=2;entryX=0.5;entryY=1;entryDx=0;entryDy=0;exitX=0;exitY=0.5;exitDx=0;exitDy=0;strokeColor=#009999;" parent="110" target="111" edge="1">
                    <mxGeometry width="50" height="50" relative="1" as="geometry">
                        <mxPoint x="-715" y="460" as="sourcePoint"/>
                        <mxPoint x="-659" y="425" as="targetPoint"/>
                    </mxGeometry>
                </mxCell>
                <mxCell id="113" value="" style="endArrow=classic;startArrow=classic;html=1;rounded=0;dashed=1;strokeWidth=2;entryX=0.5;entryY=1;entryDx=0;entryDy=0;exitX=0.25;exitY=0;exitDx=0;exitDy=0;strokeColor=#009999;" parent="110" source="111" edge="1">
                    <mxGeometry width="50" height="50" relative="1" as="geometry">
                        <mxPoint x="-646.9999999999998" y="397" as="sourcePoint"/>
                        <mxPoint x="-696.9999999999998" y="237" as="targetPoint"/>
                    </mxGeometry>
                </mxCell>
                <mxCell id="114" value="" style="endArrow=classic;startArrow=classic;html=1;rounded=0;dashed=1;strokeWidth=2;strokeColor=#009999;entryX=1;entryY=0.5;entryDx=0;entryDy=0;exitX=0.25;exitY=0;exitDx=0;exitDy=0;" parent="110" edge="1">
                    <mxGeometry width="50" height="50" relative="1" as="geometry">
                        <mxPoint x="-850" y="656.9999999999998" as="sourcePoint"/>
                        <mxPoint x="-724" y="500.0000000000002" as="targetPoint"/>
                    </mxGeometry>
                </mxCell>
                <mxCell id="115" value="" style="endArrow=classic;startArrow=classic;html=1;rounded=0;dashed=1;strokeWidth=2;entryX=0.5;entryY=1;entryDx=0;entryDy=0;strokeColor=#009999;exitX=0.75;exitY=0;exitDx=0;exitDy=0;" parent="110" source="111" edge="1">
                    <mxGeometry width="50" height="50" relative="1" as="geometry">
                        <mxPoint x="-615" y="340" as="sourcePoint"/>
                        <mxPoint x="-585" y="239.9999999999999" as="targetPoint"/>
                    </mxGeometry>
                </mxCell>
                <mxCell id="116" value="Azure Firewall&lt;br&gt;LB IP&amp;nbsp;&lt;b&gt;10.0.0.196&lt;/b&gt;" style="text;html=1;strokeColor=default;fillColor=#E6E6E6;align=center;verticalAlign=middle;whiteSpace=wrap;rounded=0;dashed=1;" parent="110" vertex="1">
                    <mxGeometry x="-495" y="430" width="110" height="50" as="geometry"/>
                </mxCell>
                <mxCell id="117" value="" style="rounded=0;orthogonalLoop=1;jettySize=auto;html=1;exitX=0;exitY=0.5;exitDx=0;exitDy=0;dashed=1;startArrow=none;startFill=0;endArrow=none;endFill=0;strokeColor=#000000;entryX=1;entryY=1;entryDx=0;entryDy=0;opacity=50;" parent="110" source="116" edge="1">
                    <mxGeometry relative="1" as="geometry">
                        <mxPoint x="-495" y="375" as="sourcePoint"/>
                        <mxPoint x="-605" y="400" as="targetPoint"/>
                    </mxGeometry>
                </mxCell>
                <mxCell id="124" value="Flow" style="" parent="0" visible="0"/>
                <mxCell id="125" value="" style="endArrow=classic;startArrow=classic;html=1;rounded=0;dashed=1;strokeWidth=1;strokeColor=#009999;" parent="124" edge="1">
                    <mxGeometry width="50" height="50" relative="1" as="geometry">
                        <mxPoint x="-703.4536082474226" y="459.9999999999999" as="sourcePoint"/>
                        <mxPoint x="-693.3825136612021" y="240" as="targetPoint"/>
                        <Array as="points">
                            <mxPoint x="-659" y="383"/>
                        </Array>
                    </mxGeometry>
                </mxCell>
                <mxCell id="126" value="" style="endArrow=classic;startArrow=classic;html=1;rounded=0;dashed=1;strokeWidth=1;strokeColor=#009999;entryX=0.75;entryY=1;entryDx=0;entryDy=0;exitX=0;exitY=0.5;exitDx=0;exitDy=0;" parent="124" edge="1">
                    <mxGeometry width="50" height="50" relative="1" as="geometry">
                        <mxPoint x="-665" y="459.9999999999999" as="sourcePoint"/>
                        <mxPoint x="-567" y="240" as="targetPoint"/>
                        <Array as="points">
                            <mxPoint x="-606" y="396"/>
                        </Array>
                    </mxGeometry>
                </mxCell>
                <mxCell id="127" value="" style="endArrow=classic;startArrow=classic;html=1;rounded=0;dashed=1;strokeWidth=1;strokeColor=#009999;entryX=0.75;entryY=1;entryDx=0;entryDy=0;" parent="124" edge="1">
                    <mxGeometry width="50" height="50" relative="1" as="geometry">
                        <mxPoint x="-662" y="459" as="sourcePoint"/>
                        <mxPoint x="-683" y="240" as="targetPoint"/>
                        <Array as="points">
                            <mxPoint x="-642" y="382"/>
                        </Array>
                    </mxGeometry>
                </mxCell>
                <mxCell id="128" value="" style="endArrow=classic;startArrow=classic;html=1;rounded=0;dashed=1;strokeWidth=1;strokeColor=#009999;entryX=0.642;entryY=0.999;entryDx=0;entryDy=0;exitX=0;exitY=0.25;exitDx=0;exitDy=0;entryPerimeter=0;" parent="124" edge="1">
                    <mxGeometry width="50" height="50" relative="1" as="geometry">
                        <mxPoint x="-705" y="459.9999999999999" as="sourcePoint"/>
                        <mxPoint x="-575.6400000000001" y="239.91999999999996" as="targetPoint"/>
                        <Array as="points">
                            <mxPoint x="-618" y="390"/>
                        </Array>
                    </mxGeometry>
                </mxCell>
                <mxCell id="129" value="" style="endArrow=classic;startArrow=classic;html=1;rounded=0;dashed=1;strokeWidth=1;strokeColor=#009999;" parent="124" target="101" edge="1">
                    <mxGeometry width="50" height="50" relative="1" as="geometry">
                        <mxPoint x="-703" y="459" as="sourcePoint"/>
                        <mxPoint x="-673" y="250" as="targetPoint"/>
                        <Array as="points">
                            <mxPoint x="-575" y="428"/>
                        </Array>
                    </mxGeometry>
                </mxCell>
                <mxCell id="130" value="" style="endArrow=classic;startArrow=classic;html=1;rounded=0;dashed=1;strokeWidth=1;strokeColor=#009999;entryX=0.5;entryY=1;entryDx=0;entryDy=0;exitX=-0.019;exitY=0.403;exitDx=0;exitDy=0;exitPerimeter=0;" parent="124" source="86" target="101" edge="1">
                    <mxGeometry width="50" height="50" relative="1" as="geometry">
                        <mxPoint x="-653" y="467" as="sourcePoint"/>
                        <mxPoint x="-555.344827586207" y="410" as="targetPoint"/>
                        <Array as="points">
                            <mxPoint x="-565" y="438"/>
                        </Array>
                    </mxGeometry>
                </mxCell>
                <object label="UDR" id="103">
                    <mxCell parent="0" visible="0"/>
                </object>
                <mxCell id="104" value="Spokes to FW&lt;br&gt;Propagation Off" style="aspect=fixed;html=1;points=[];align=center;image;fontSize=12;image=img/lib/azure2/networking/Route_Tables.svg;fontStyle=1" parent="103" vertex="1">
                    <mxGeometry x="-500" y="170" width="20.65" height="20" as="geometry"/>
                </mxCell>
                <mxCell id="105" value="ERGW to FW&lt;br&gt;Propagation On" style="aspect=fixed;html=1;points=[];align=center;image;fontSize=12;image=img/lib/azure2/networking/Route_Tables.svg;fontStyle=1" parent="103" vertex="1">
                    <mxGeometry x="-500" y="500" width="20.65" height="20" as="geometry"/>
                </mxCell>
                <mxCell id="106" value="SDWAN to FW&lt;br&gt;Propagation Off" style="aspect=fixed;html=1;points=[];align=center;image;fontSize=12;image=img/lib/azure2/networking/Route_Tables.svg;fontStyle=1" parent="103" vertex="1">
                    <mxGeometry x="-870" y="530" width="20.65" height="20" as="geometry"/>
                </mxCell>
            </root>
        </mxGraphModel>
    </diagram>
</mxfile>